<?xml version="1.0" encoding="iso-8859-1"?>
<!-- Uploaded to: SVG Repo, www.svgrepo.com, Generator: SVG Repo Mixer Tools -->
<svg version="1.1" id="Layer_1" xmlns="http://www.w3.org/2000/svg" xmlns:xlink="http://www.w3.org/1999/xlink" 
	 viewBox="0 0 512.001 512.001" xml:space="preserve">
<path style="fill:#FEF2CC;" d="M502.856,188.034c-11.36-41.407-33.296-80.519-65.829-113.052
	c-99.976-99.976-262.07-99.976-362.045,0s-99.976,262.07,0,362.045c32.533,32.533,71.646,54.469,113.052,65.829L502.856,188.034z"/>
<path style="fill:#FBD867;" d="M437.028,437.028c67.444-67.444,89.379-163.153,65.829-248.993l-89.44-89.44l-157.412,157.41
	l-141.67,173.153l73.699,73.699C273.875,526.407,369.584,504.47,437.028,437.028z"/>
<polygon style="fill:#263230;" points="98.594,413.415 114.335,429.157 185.17,358.322 169.429,326.84 "/>
<polygon style="fill:#B0B7B6;" points="200.912,342.581 240.264,303.227 216.653,279.616 169.429,326.84 "/>
<polygon style="fill:#C3C9C8;" points="224.523,287.486 208.782,271.746 169.429,311.099 177.299,334.71 "/>
<polygon style="fill:#4C6460;" points="153.688,326.84 82.852,397.674 98.594,413.415 177.299,334.71 "/>
<polygon style="fill:#DFE6E4;" points="185.17,326.84 169.429,326.84 169.429,342.581 185.17,358.322 200.912,342.581 "/>
<rect x="158.302" y="315.707" transform="matrix(-0.7071 -0.7071 0.7071 -0.7071 58.1313 677.7534)" style="fill:#FFFFFF;" width="22.261" height="22.261"/>
<path style="fill:#4C6460;" d="M413.415,98.594l-133.799,70.835l-70.835,133.799c56.508,56.508,148.126,56.508,204.634,0
	S469.923,155.102,413.415,98.594z"/>
<path style="fill:#889391;" d="M208.782,98.594c-56.508,56.508-56.508,148.126,0,204.634L413.415,98.594
	C356.907,42.086,265.29,42.086,208.782,98.594z"/>
<path style="fill:#F9BE02;" d="M311.098,89.605l-40.475,111.306l40.475,111.306c61.472,0,111.306-49.833,111.306-111.306
	S372.572,89.605,311.098,89.605z"/>
<path style="fill:#FBD867;" d="M199.792,200.911c0,61.473,49.834,111.306,111.306,111.306V89.605
	C249.626,89.605,199.792,139.438,199.792,200.911z"/>
<polygon style="fill:#FEF2CC;" points="385.006,185.774 311.098,111.866 294.861,188.211 336.69,264.557 373.43,264.557 
	373.43,185.774 "/>
<polygon style="fill:#FFFFFF;" points="237.191,185.774 248.767,185.774 248.767,264.557 285.508,264.557 311.098,230.436 
	311.098,111.866 "/>
<polygon style="fill:#8C2416;" points="311.098,196.316 300.653,230.436 311.098,264.557 336.69,264.557 336.69,196.316 "/>
<rect x="285.512" y="196.311" style="fill:#A72B1A;" width="25.59" height="68.242"/>
</svg>