<?xml version="1.0" encoding="iso-8859-1"?>
<!-- Uploaded to: SVG Repo, www.svgrepo.com, Generator: SVG Repo Mixer Tools -->
<svg height="800px" width="800px" version="1.1" id="Layer_1" xmlns="http://www.w3.org/2000/svg" xmlns:xlink="http://www.w3.org/1999/xlink" 
	 viewBox="0 0 512 512" xml:space="preserve">
<path style="fill:#36CC6B;" d="M110.386,242.91c2.315-5.499,3.598-11.543,3.598-17.887c0-25.478-20.652-46.13-46.129-46.13
	s-46.127,20.651-46.127,46.13c0,6.343,1.283,12.386,3.599,17.889c-10.04,11.543-16.216,27.156-16.216,44.36
	c0,35.537,26.303,64.345,58.744,64.345c32.446,0,58.745-28.809,58.745-64.345C126.601,270.07,120.428,254.455,110.386,242.91z"/>
<path style="opacity:0.1;fill:#231F20;enable-background:new    ;" d="M26.358,287.273c0-14.861,4.617-28.53,12.343-39.419
	c0.017-0.027,0.028-0.051,0.046-0.078c3.575-5.61,2.112-9.67,2.112-9.67l0.01-0.003c-1.226-4.149-1.894-8.535-1.894-13.079
	c0-22.529,16.151-41.273,37.504-45.313c-2.795-0.528-5.675-0.817-8.623-0.817c-25.476,0-46.127,20.651-46.127,46.13
	c0,6.343,1.283,12.386,3.599,17.889c-10.04,11.543-16.216,27.156-16.216,44.36c0,35.537,26.303,64.345,58.744,64.345
	c2.931,0,5.809-0.243,8.623-0.697C48.126,346.351,26.358,319.6,26.358,287.273z"/>
<path style="fill:#2DA555;" d="M186.096,287.569c1.713-4.069,2.662-8.539,2.662-13.232c0-18.847-15.279-34.123-34.124-34.123
	c-14.968,0-27.675,9.64-32.273,23.048c2.73,7.419,4.24,15.52,4.24,24.011c0,16.253-5.512,31.086-14.587,42.413
	c3.949,21.836,21.53,38.301,42.621,38.301c24.001,0,43.457-21.312,43.457-47.601C198.092,307.659,193.525,296.111,186.096,287.569z"
	/>
<g>
	<path style="fill:#8C6644;" d="M154.636,443.78c-4.466,0-8.084-3.618-8.084-8.084V330.449c0-4.466,3.618-8.084,8.084-8.084
		c4.465,0,8.084,3.618,8.084,8.084v105.247C162.72,440.162,159.1,443.78,154.636,443.78z"/>
	<path style="fill:#8C6644;" d="M91.421,305.85c-2.444-3.736-7.454-4.786-11.191-2.342l-4.289,2.805v-25.249
		c0-4.466-3.62-8.084-8.084-8.084s-8.084,3.618-8.084,8.084v109.613L43.899,380.3c-3.737-2.445-8.747-1.394-11.191,2.342
		c-2.444,3.737-1.395,8.747,2.342,11.191l24.722,16.164v63.621c0,4.466,3.62,8.084,8.084,8.084s8.084-3.618,8.084-8.084V325.63
		l13.137-8.589C92.815,314.598,93.864,309.589,91.421,305.85z"/>
</g>
<path style="fill:#B0E046;" d="M247.368,439.202c-1.982,0-3.88,0.342-5.649,0.966c-0.331-14.7-12.339-26.516-27.116-26.516
	c-13.329,0-24.406,9.614-26.692,22.287c-3.922-3.862-9.3-6.244-15.237-6.244c-1.596,0-3.154,0.18-4.653,0.507
	c-4.123-9.725-13.746-16.549-24.975-16.549c-13.327,0-24.406,9.614-26.692,22.287c-3.921-3.862-9.299-6.244-15.237-6.244
	c-11.496,0-20.9,8.932-21.667,20.235c-1.048-0.279-2.141-0.443-3.275-0.443c-6.979,0-12.636,5.657-12.636,12.638
	c0,6.979,5.657,12.638,12.636,12.638h71.558h35.611h9.714h17.244h44.6V440.98C252.634,439.849,250.079,439.202,247.368,439.202z"/>
<polygon style="fill:#DDE8ED;" points="470.43,327.444 360.01,211.085 249.591,327.444 250.686,327.444 250.686,474.763 
	469.333,474.763 469.333,327.444 "/>
<g>
	<path style="fill:#748489;" d="M346.047,359.081h-61.44c-4.466,0-8.084-3.618-8.084-8.084s3.618-8.084,8.084-8.084h61.44
		c4.466,0,8.084,3.618,8.084,8.084S350.513,359.081,346.047,359.081z"/>
	<path style="fill:#748489;" d="M443.058,359.081h-71.141c-4.466,0-8.084-3.618-8.084-8.084s3.618-8.084,8.084-8.084h71.141
		c4.466,0,8.084,3.618,8.084,8.084S447.524,359.081,443.058,359.081z"/>
</g>
<g>
	<path style="fill:#C17A49;" d="M296.465,200.435h-60.362c-4.465,0-8.084-3.618-8.084-8.084c0-4.466,3.62-8.084,8.084-8.084h60.362
		c4.465,0,8.084,3.618,8.084,8.084C304.549,196.816,300.93,200.435,296.465,200.435z"/>
	<path style="fill:#C17A49;" d="M271.673,217.338h-9.147c-7.143,0-12.935,5.792-12.935,12.935v2.156v8.853v49.833l35.016-36.898
		v-12.935v-8.853v-2.156C284.607,223.13,278.816,217.338,271.673,217.338z"/>
</g>
<g>
	<path style="fill:#748489;" d="M333.113,376.679h-35.571c-7.143,0-12.935,5.792-12.935,12.935v3.421v46.888v34.84h61.44v-34.84
		v-46.888v-3.421C346.047,382.47,340.256,376.679,333.113,376.679z"/>
	<path style="fill:#748489;" d="M443.058,418.904c0,7.143-5.792,12.935-12.935,12.935h-45.272c-7.143,0-12.935-5.792-12.935-12.935
		v-29.291c0-7.143,5.792-12.935,12.935-12.935h45.272c7.143,0,12.935,5.792,12.935,12.935V418.904z"/>
</g>
<g>
	<path style="fill:#85C8EB;" d="M394.932,29.153h-84.725c-9.977,0-18.063,8.086-18.063,18.063c0,3.349,0.926,6.475,2.516,9.164
		h-37.625c-9.979,0-18.065,8.086-18.065,18.063c0,9.975,8.086,18.061,18.065,18.061h51.196h22.892h10.633
		c9.979,0,18.061-8.086,18.061-18.061c0-3.352-0.926-6.476-2.516-9.165h37.629c9.977,0,18.061-8.087,18.061-18.062
		C412.992,37.239,404.908,29.153,394.932,29.153z"/>
	<path style="fill:#85C8EB;" d="M290.481,124.32h-9.788h-16.856h-9.788c-9.91,0-17.945,8.032-17.945,17.945
		c0,9.911,8.035,17.945,17.945,17.945h9.788h16.856h9.788c9.911,0,17.947-8.032,17.947-17.945
		C308.429,132.353,300.393,124.32,290.481,124.32z"/>
</g>
<polygon style="opacity:0.1;fill:#231F20;enable-background:new    ;" points="360.096,211.176 257.815,318.778 257.815,318.778 
	249.591,327.444 250.686,327.444 250.686,474.763 267.931,474.763 267.931,333.17 371.985,223.703 "/>
<path style="fill:#8C6644;" d="M503.916,482.847H8.084c-4.465,0-8.084-3.62-8.084-8.084c0-4.466,3.62-8.084,8.084-8.084h495.832
	c4.465,0,8.084,3.618,8.084,8.084C512,479.229,508.38,482.847,503.916,482.847z"/>
<path style="fill:#85C8EB;" d="M496.729,318.12L363.746,177.983c-1.018-1.072-2.432-1.68-3.91-1.68s-2.892,0.607-3.91,1.68
	L222.941,318.12c-1.483,1.562-1.893,3.858-1.042,5.837c0.849,1.979,2.797,3.262,4.952,3.262h20.636c1.479,0,2.893-0.607,3.91-1.68
	L360.01,211.084l108.612,114.454c1.019,1.073,2.432,1.68,3.91,1.68h20.288c2.154,0,4.101-1.283,4.952-3.262
	C498.622,321.978,498.212,319.682,496.729,318.12z"/>
</svg>