<?xml version="1.0" encoding="iso-8859-1"?>
<!-- Uploaded to: SVG Repo, www.svgrepo.com, Generator: SVG Repo Mixer Tools -->
<svg height="800px" width="800px" version="1.1" id="Layer_1" xmlns="http://www.w3.org/2000/svg" xmlns:xlink="http://www.w3.org/1999/xlink" 
	 viewBox="0 0 512.002 512.002" xml:space="preserve">
<path style="fill:#D5F4FA;" d="M454.873,148.18L268.693,27.043c-7.719-5.021-17.667-5.021-25.384,0L57.129,148.18
	c-6.6,4.295-10.58,11.633-10.58,19.507v297.769c0,12.853,10.42,23.273,23.273,23.273h372.36c12.853,0,23.273-10.42,23.273-23.273
	V167.687C465.455,159.813,461.473,152.474,454.873,148.18z"/>
<path style="fill:#C0FCFF;" d="M454.873,148.18L268.693,27.043c-3.859-2.51-8.276-3.765-12.693-3.765v465.45h186.18
	c12.853,0,23.273-10.42,23.273-23.273V167.687C465.455,159.813,461.473,152.474,454.873,148.18z"/>
<path style="fill:#DA3981;" d="M488.705,221.244c-4.352,0-8.752-1.218-12.671-3.769L256.002,74.314L35.968,217.477
	c-10.769,7.01-25.189,3.961-32.2-6.814c-7.01-10.774-3.958-25.19,6.814-32.2L243.308,27.041c7.719-5.021,17.667-5.021,25.384,0
	l232.725,151.422c10.772,7.01,13.824,21.426,6.814,32.2C503.774,217.516,496.314,221.244,488.705,221.244z"/>
<path style="fill:#5192C9;" d="M334.126,340.393l-30.256-30.257c12.358-25.947,7.826-57.997-13.624-79.449
	c-13.186-13.189-30.72-20.452-49.369-20.452c-18.651,0-36.183,7.263-49.367,20.45c-13.188,13.186-20.45,30.72-20.45,49.369
	s7.263,36.183,20.45,49.367c13.186,13.186,30.718,20.449,49.367,20.449c10.597,0,20.827-2.351,30.11-6.794l30.226,30.228
	c4.544,4.544,10.501,6.817,16.455,6.817s11.912-2.273,16.455-6.817C343.216,364.218,343.216,349.482,334.126,340.393z
	 M224.42,296.509c-4.395-4.395-6.816-10.238-6.816-16.454s2.419-12.06,6.819-16.458c4.395-4.395,10.238-6.816,16.454-6.816
	c6.217,0,12.058,2.42,16.454,6.817c9.075,9.075,9.075,23.84,0.002,32.914c-4.395,4.395-10.24,6.816-16.455,6.816
	C234.661,303.327,228.816,300.906,224.42,296.509z"/>
<path style="fill:#B66D38;" d="M488.727,488.728H23.277c-12.853,0-23.273-10.42-23.273-23.273s10.42-23.272,23.273-23.272h465.45
	c12.853,0,23.273,10.42,23.273,23.272S501.58,488.728,488.727,488.728z"/>
<path style="fill:#A91E62;" d="M488.705,221.244c7.609,0,15.068-3.728,19.529-10.583c7.01-10.774,3.958-25.19-6.814-32.2
	L268.695,27.04c-3.859-2.51-8.276-3.765-12.693-3.765v51.038l220.032,143.162C479.953,220.026,484.353,221.244,488.705,221.244z"/>
<path style="fill:#AA3827;" d="M488.727,442.183H256.002v46.545h232.725c12.853,0,23.273-10.42,23.273-23.273
	S501.58,442.183,488.727,442.183z"/>
<path style="fill:#447BA7;" d="M334.126,340.393l-30.256-30.257c12.358-25.947,7.826-57.997-13.624-79.449
	c-9.543-9.546-21.37-15.968-34.245-18.798v50.501c0.453,0.389,0.903,0.78,1.33,1.207c9.075,9.075,9.075,23.84,0.002,32.914
	c-0.427,0.427-0.878,0.819-1.331,1.207v50.506c5.193-1.142,10.215-2.863,14.986-5.146l30.226,30.228
	c4.544,4.544,10.501,6.817,16.455,6.817s11.912-2.273,16.455-6.817C343.216,364.218,343.216,349.482,334.126,340.393z"/>
</svg>